<svg width="306" height="340" viewBox="0 0 306 340" fill="none" xmlns="http://www.w3.org/2000/svg">
<circle opacity="0.6" cx="153.109" cy="152.359" r="152.291" fill="#317F8B"/>
<path d="M196.068 298.018H115.548C101.738 298.018 90.4395 286.764 90.4395 273.009V202.151C90.4395 188.396 101.738 177.143 115.548 177.143H196.069C209.879 177.143 221.178 188.396 221.178 202.151V273.009C221.178 286.763 209.878 298.018 196.068 298.018Z" fill="white"/>
<path d="M196.069 177.142C209.879 177.142 221.178 188.395 221.178 202.15V273.008C221.178 286.763 209.879 298.017 196.069 298.017H115.549C101.739 298.017 90.4404 286.763 90.4404 273.008V202.15C90.4404 188.395 101.739 177.142 115.549 177.142H196.069V177.142ZM196.069 173.189H115.549C111.638 173.189 107.836 173.959 104.248 175.477C100.79 176.941 97.6817 179.031 95.0101 181.693C92.3386 184.354 90.2386 187.451 88.769 190.894C87.245 194.468 86.4717 198.255 86.4717 202.15V273.008C86.4717 276.904 87.245 280.691 88.769 284.264C90.2386 287.709 92.3375 290.804 95.0101 293.465C97.6817 296.126 100.791 298.218 104.248 299.681C107.836 301.199 111.638 301.97 115.549 301.97H196.07C199.981 301.97 203.783 301.199 207.371 299.681C210.829 298.218 213.938 296.127 216.609 293.465C219.281 290.804 221.381 287.708 222.85 284.264C224.374 280.691 225.148 276.904 225.148 273.008V202.15C225.148 198.255 224.374 194.468 222.85 190.894C221.381 187.45 219.282 184.354 216.609 181.693C213.938 179.032 210.828 176.941 207.371 175.477C203.783 173.959 199.98 173.189 196.069 173.189Z" fill="#317F8B"/>
<path d="M219.377 254.203C206.84 255.666 194.345 256.027 194.345 256.027C194.345 256.027 187.981 224.422 186.217 199.638C184.917 181.275 186.139 166.662 194.345 171.428C198.119 173.621 202.467 177.751 207 182.991C224.004 202.648 243.539 237.946 244.61 245.27C245.302 249.981 232.322 252.683 219.377 254.203Z" fill="white"/>
<path d="M192.666 258.132L192.323 256.432C192.285 256.238 188.393 236.818 185.875 216.71C184.389 204.855 183.663 195.066 183.716 187.618C183.787 177.444 185.27 171.674 188.383 169.459C189.749 168.487 192.074 167.733 195.385 169.656C206.3 175.999 220.153 196.204 227.44 207.683C232.3 215.34 236.952 223.389 240.541 230.346C243.07 235.248 246.183 241.765 246.653 244.973C246.79 245.905 246.699 247.318 245.485 248.757C243.731 250.837 240.088 252.466 234.018 253.88C229.567 254.916 223.849 255.809 217.02 256.532C205.46 257.755 194.514 258.079 194.405 258.082L192.666 258.132ZM191.502 172.573C191.104 172.573 190.896 172.722 190.781 172.802C189.435 173.76 185.401 179.717 189.966 216.18C192.034 232.694 195.036 248.749 196.033 253.91C199.553 253.769 207.906 253.364 216.607 252.442C236.81 250.302 241.323 247.303 242.326 246.114C242.604 245.785 242.581 245.633 242.571 245.567C241.985 241.575 234.364 226.281 223.953 209.878C211.896 190.883 200.727 177.515 193.306 173.204C192.465 172.715 191.892 172.573 191.502 172.573Z" fill="#317F8B"/>
<path d="M130.553 170.263L128.015 189.381L126.571 200.25L123.493 223.457C123.493 223.457 117.866 227.269 108.507 230.289C105.01 231.419 100.982 232.43 96.5371 233.093C89.2709 234.182 80.8697 234.321 71.7676 232.466C48.3498 227.689 34.2959 210.364 28.2112 201.653C16.4512 184.84 14.6415 180.294 17.9106 173.216C20.4064 167.791 24.6824 166.801 24.6824 166.801C24.6824 166.801 24.4715 162.466 27.9164 160.925C38.2408 156.307 51.5406 168.64 51.5406 168.64C51.5406 168.64 52.0362 155.377 59.1629 158.439C64.0728 160.55 65.1863 174.989 65.1863 174.989C65.1863 174.989 71.7767 183.423 82.2463 184.543C87.7175 185.128 95.2887 183.547 102.808 181.25C102.895 181.224 102.984 181.2 103.071 181.168C107.078 179.936 111.059 178.507 114.705 177.094C116.34 176.463 117.907 175.83 119.377 175.225C125.947 172.512 130.553 170.263 130.553 170.263Z" fill="white"/>
<path opacity="0.35" d="M28.2075 201.653C34.2979 210.362 48.3495 227.69 71.7651 232.466C86.4324 235.455 99.2855 233.259 108.508 230.286C117.867 227.269 123.493 223.455 123.493 223.455L123.905 205.142C123.905 205.142 117.528 199.02 111.589 201.516C104.452 204.515 106.739 214.708 96.5459 217.542C68.2102 225.423 45.1915 211.025 37.7847 204.703C27.509 195.935 24.8284 190.412 23.3827 188.133C20.3902 183.418 18.0793 179.712 16.7764 176.394C15.4486 182.007 18.2834 187.459 28.2075 201.653Z" fill="#317F8B"/>
<path d="M85.8959 235.944C81.0064 235.944 76.1373 235.455 71.3521 234.478C60.8259 232.331 51.0049 227.497 42.1637 220.108C36.4736 215.354 31.2088 209.538 26.5166 202.827C20.7903 194.636 17.1504 189.009 15.4903 184.489C13.8994 180.158 14.057 176.643 16.0323 172.356C17.977 168.135 20.9173 166.193 22.6942 165.361C22.9845 163.19 24.115 160.375 27.07 159.053C35.4656 155.297 45.1539 161.11 49.9492 164.688C49.9957 164.445 50.0479 164.196 50.1035 163.945C50.8983 160.394 52.2704 157.984 54.1811 156.783C55.3547 156.046 57.313 155.407 59.9834 156.556C62.6923 157.722 64.6688 161.154 66.0272 167.048C66.7223 170.068 67.0568 172.903 67.1827 174.159C68.6409 175.803 74.34 181.631 82.468 182.499C97.3054 184.083 129.321 168.574 129.643 168.417C130.325 168.084 131.137 168.152 131.754 168.594C132.371 169.036 132.694 169.781 132.596 170.531L125.54 223.724C125.463 224.304 125.142 224.824 124.656 225.152C124.42 225.313 118.762 229.111 109.353 232.173C103.843 233.966 98.1729 235.134 92.5033 235.646C90.3 235.844 88.0957 235.944 85.8959 235.944ZM25.1593 168.796C24.8928 168.869 21.7439 169.808 19.7811 174.068C17.1379 179.806 17.7877 183.15 29.9014 200.478C41.2906 216.769 55.9092 227.133 72.1787 230.451C87.0026 233.475 99.8783 230.931 108.07 228.266C115.014 226.006 119.803 223.31 121.574 222.234L128.01 173.715C124.648 175.244 119.148 177.646 112.976 179.95C99.2377 185.078 88.8237 187.31 82.028 186.584C70.8169 185.388 63.8501 176.624 63.5586 176.252C63.3103 175.933 63.1606 175.549 63.13 175.147C63.1277 175.113 62.8477 171.606 61.995 167.922C60.5583 161.712 58.8392 160.538 58.3471 160.327C57.1157 159.797 56.5838 160.131 56.3831 160.256C54.6494 161.342 53.7105 165.858 53.5971 168.716C53.5653 169.518 53.0664 170.23 52.3214 170.536C51.5753 170.842 50.7203 170.688 50.1295 170.14C50.0071 170.027 37.7074 158.797 28.7595 162.8C26.6981 163.723 26.7355 166.506 26.7412 166.706C26.8024 167.72 26.156 168.586 25.1593 168.796Z" fill="#317F8B"/>
<path d="M53.2371 168.637C53.2847 169.214 53.1985 169.74 53.0829 170.195C53.0251 170.43 52.9536 170.633 52.881 170.842C52.8073 171.037 52.7268 171.236 52.6475 171.413C52.322 172.143 51.9705 172.747 51.636 173.333C51.3004 173.916 50.9772 174.471 50.6767 175.026L50.4567 175.444C50.3875 175.584 50.3138 175.723 50.2469 175.864L50.0519 176.289L49.8659 176.718L49.697 177.154L49.5405 177.597C49.4872 177.745 49.4475 177.896 49.3999 178.046C49.35 178.196 49.3126 178.35 49.2718 178.503C49.1153 179.117 48.9803 179.749 48.9021 180.401C48.8171 181.052 48.7626 181.719 48.7468 182.398C48.7297 182.739 48.7365 183.08 48.7331 183.428C48.7275 183.602 48.7422 183.773 48.7434 183.949C48.7468 184.124 48.7524 184.299 48.7513 184.476V184.488C48.7513 184.625 48.6402 184.736 48.5018 184.736C48.4054 184.736 48.3227 184.681 48.2818 184.601C47.9507 183.962 47.6514 183.298 47.4201 182.605C47.1763 181.913 47.0016 181.193 46.8735 180.455C46.6218 178.98 46.6274 177.419 46.9041 175.895L47.0187 175.326C47.0629 175.138 47.1116 174.952 47.1581 174.763C47.208 174.577 47.2636 174.394 47.3157 174.207C47.3702 174.023 47.4348 173.844 47.4949 173.662C47.7432 172.939 48.0505 172.252 48.3669 171.609C48.6821 170.966 49.0178 170.36 49.2899 169.833C49.5768 169.3 49.7389 168.868 49.8342 168.634L50.0338 168.145C50.3807 167.297 51.3525 166.889 52.2041 167.235C52.8062 167.481 53.1861 168.035 53.2371 168.637Z" fill="#317F8B"/>
<path d="M69.5001 233.877C68.9796 233.877 68.4773 233.59 68.2301 233.094C67.8808 232.396 68.1666 231.549 68.8673 231.201C74.5857 228.368 78.4932 219.525 80.1647 205.627C81.4607 194.857 80.9221 184.841 80.9165 184.741C80.8734 183.963 81.4709 183.297 82.2522 183.253C83.0301 183.209 83.7025 183.805 83.7467 184.583C83.7524 184.685 84.3046 194.915 82.9836 205.925C82.2023 212.441 80.9267 217.969 79.1917 222.357C76.9466 228.036 73.8974 231.862 70.1305 233.729C69.9275 233.83 69.7121 233.877 69.5001 233.877Z" fill="#317F8B"/>
<g opacity="0.35">
<g opacity="0.35">
<g opacity="0.35">
<g opacity="0.35">
<path opacity="0.35" d="M252.433 324.748V324.46C250.166 324.557 252.433 324.748 252.433 324.748Z" fill="#317F8B"/>
</g>
</g>
</g>
</g>
<path d="M223.824 290.066H87.6504C87.6504 290.066 88.4804 266.659 96.5358 233.092C99.7641 219.63 104.158 204.533 110.125 188.656C111.558 184.844 113.086 180.987 114.705 177.093C119.233 166.229 124.513 155.104 130.672 143.978H180.804C185.894 153.177 190.385 162.371 194.346 171.427C196.909 177.283 199.25 183.077 201.386 188.768C210.704 213.577 216.177 236.476 219.379 254.202C223.328 276.069 223.824 290.066 223.824 290.066Z" fill="white"/>
<path d="M205.129 206.225C207.761 209.151 208.964 212.557 210.075 215.978C210.633 217.689 211.183 219.404 211.708 221.126C211.971 221.987 212.241 222.846 212.476 223.715C212.717 224.581 212.952 225.45 213.188 226.319L213.877 228.929C214.104 229.8 214.333 230.669 214.546 231.545L215.799 236.796C216.003 237.673 216.227 238.543 216.426 239.421L217.024 242.053L217.637 244.681C217.844 245.556 218.057 246.43 218.25 247.309L219.431 252.575C219.634 253.452 219.809 254.335 219.996 255.215L220.549 257.856L220.826 259.176L220.964 259.837L221.093 260.499L221.612 263.147C221.784 264.031 221.962 264.913 222.149 265.792C222.328 266.675 222.509 267.557 222.697 268.438C223.486 271.953 224.062 275.514 224.301 279.122C224.332 279.572 224.367 280.022 224.389 280.475L224.447 281.831C224.476 282.737 224.501 283.641 224.487 284.553C224.482 285.462 224.461 286.372 224.402 287.286C224.349 288.2 224.273 289.113 224.135 290.034C224.109 290.211 223.942 290.333 223.764 290.307C223.643 290.289 223.547 290.207 223.506 290.101L223.505 290.096C222.854 288.374 222.323 286.643 221.82 284.913C221.573 284.048 221.335 283.181 221.105 282.314L220.774 281.012C220.669 280.577 220.562 280.144 220.453 279.709C220.031 277.971 219.659 276.228 219.325 274.478C219.164 273.601 219.017 272.722 218.883 271.842C218.739 270.962 218.607 270.081 218.47 269.2C218.336 268.318 218.195 267.438 218.052 266.558C217.9 265.68 217.731 264.804 217.56 263.929L217.047 261.303L216.918 260.647L216.781 259.992L216.507 258.683L215.958 256.064C215.772 255.192 215.598 254.317 215.398 253.447L214.225 248.225C214.037 247.353 213.817 246.488 213.61 245.62L212.969 243.022L212.312 240.427C212.206 239.995 212.084 239.564 211.969 239.134L211.616 237.843L210.2 232.682C209.71 230.966 209.209 229.254 208.731 227.535C208.493 226.676 208.255 225.816 208.024 224.955L207.852 224.309L207.669 223.665L207.309 222.376C206.83 220.658 206.375 218.933 205.927 217.205L205.598 215.906C205.488 215.473 205.367 215.044 205.251 214.613C205.021 213.75 204.828 212.876 204.683 211.987C204.539 211.097 204.438 210.193 204.4 209.27C204.379 208.808 204.377 208.34 204.394 207.866C204.412 207.391 204.443 206.911 204.527 206.416L204.53 206.396C204.562 206.209 204.74 206.082 204.928 206.114C205.009 206.129 205.079 206.169 205.129 206.225Z" fill="#317F8B"/>
<path d="M87.331 290.055C87.1212 289.59 86.9772 289.128 86.8423 288.664C86.7073 288.199 86.6064 287.739 86.5168 287.276C86.3354 286.35 86.2379 285.429 86.1835 284.511C86.1585 284.052 86.1415 283.593 86.1426 283.136C86.1438 282.678 86.1619 282.223 86.1835 281.768L86.2606 280.402C86.2844 279.947 86.3127 279.492 86.3501 279.038C86.4919 277.222 86.6302 275.404 86.8434 273.597C86.9398 272.691 87.0475 271.787 87.1541 270.883C87.2063 270.431 87.2766 269.981 87.3378 269.53L87.5294 268.178L87.9297 265.477C88.0703 264.578 88.2336 263.684 88.3867 262.787C88.6996 260.995 88.9945 259.2 89.3516 257.417C89.6986 255.631 90.0161 253.841 90.371 252.059C90.7316 250.278 91.0831 248.495 91.4301 246.71C91.5186 246.264 91.598 245.817 91.6943 245.373L91.9801 244.04L92.5505 241.375L93.1208 238.71C93.1696 238.487 93.2138 238.265 93.2648 238.043L93.4213 237.38L93.7343 236.053L94.985 230.746C95.0859 230.303 95.1993 229.863 95.3116 229.423C95.4204 228.981 95.5315 228.54 95.6359 228.099C95.8468 227.215 96.0554 226.33 96.2561 225.444C96.4614 224.558 96.6621 223.671 96.8741 222.786C97.0782 221.9 97.3345 221.028 97.5908 220.155C97.8527 219.284 98.1305 218.418 98.4219 217.555C98.7145 216.693 99.0252 215.836 99.3393 214.981L99.8246 213.702C99.9062 213.49 99.9969 213.28 100.085 213.069C100.175 212.859 100.261 212.648 100.354 212.438C100.72 211.598 101.091 210.763 101.486 209.935C101.876 209.105 102.283 208.281 102.71 207.466C103.138 206.65 103.581 205.841 104.073 205.048C104.168 204.895 104.368 204.848 104.521 204.943C104.626 205.007 104.681 205.121 104.676 205.236V205.241C104.471 208.968 103.771 212.514 103.079 216.059C102.901 216.944 102.72 217.827 102.52 218.706C102.319 219.583 102.104 220.456 101.875 221.325C101.396 223.057 100.915 224.789 100.414 226.517C100.164 227.381 99.9198 228.246 99.6783 229.112C99.5558 229.545 99.4413 229.979 99.3245 230.413C99.21 230.848 99.0921 231.282 98.9946 231.721L97.7574 236.971L97.4479 238.284L97.2937 238.94C97.2426 239.159 97.1984 239.379 97.1508 239.598L96.5861 242.236L96.0214 244.873L95.7391 246.192C95.6449 246.631 95.5656 247.074 95.4783 247.514C94.0291 254.561 93.0551 261.692 92.1082 268.808L91.7408 271.476C91.6263 272.366 91.5118 273.256 91.387 274.144L90.6568 279.479C90.5241 280.367 90.4175 281.256 90.2973 282.145C90.235 282.589 90.1692 283.034 90.0864 283.477C90.0048 283.919 89.9243 284.362 89.8245 284.804C89.6261 285.687 89.38 286.568 89.0886 287.446C88.9434 287.886 88.7699 288.326 88.5919 288.764C88.4094 289.203 88.2109 289.643 87.966 290.08L87.9637 290.085C87.8685 290.254 87.6542 290.315 87.4841 290.22C87.4126 290.18 87.3616 290.121 87.331 290.055Z" fill="#317F8B"/>
<path d="M126.871 260.534C119.104 263.666 107.085 263.011 98.8909 262.023C93.9764 261.431 90.5259 256.913 91.2505 252.035C91.9115 247.584 95.8451 244.348 100.357 244.558C108.021 244.916 119.518 245.083 126.799 243.475" fill="white"/>
<g opacity="0.35">
<g opacity="0.35">
<g opacity="0.35">
<g opacity="0.35">
<path opacity="0.35" d="M126.873 260.533C119.104 263.669 107.084 263.007 98.8907 262.026C93.9763 261.433 90.5269 256.913 91.2515 252.039C91.3955 251.044 91.7096 250.11 92.1552 249.257C93.449 251.718 95.8994 253.532 98.8907 253.893C107.07 254.881 119.069 255.536 126.839 252.42L126.873 260.533Z" fill="#317F8B"/>
</g>
</g>
</g>
</g>
<path d="M111.43 264.894C106.936 264.894 102.469 264.524 98.6428 264.063C95.7128 263.71 93.1127 262.228 91.3211 259.89C89.526 257.548 88.7765 254.652 89.2097 251.736C89.6043 249.079 90.9673 246.674 93.0469 244.965C95.1288 243.254 97.7595 242.381 100.454 242.508C111.744 243.034 120.942 242.666 126.351 241.471C127.438 241.232 130.137 241.223 131.73 246.324C133.348 251.507 133.169 260.213 127.645 262.441C123.09 264.276 117.239 264.894 111.43 264.894ZM99.9389 246.603C96.612 246.603 93.7839 249.017 93.2918 252.336C93.0231 254.145 93.488 255.943 94.6015 257.397C95.7116 258.846 97.3229 259.764 99.1395 259.983C110.856 261.395 120.431 260.915 126.097 258.63C127.78 257.951 128.263 255.235 128.394 254.099C128.847 250.123 127.633 246.451 126.872 245.562C119.488 247.108 108.361 246.989 100.262 246.611C100.153 246.605 100.045 246.603 99.9389 246.603Z" fill="#317F8B"/>
<path d="M186.276 260.534C194.043 263.666 206.062 263.011 214.256 262.023C219.17 261.431 222.621 256.913 221.896 252.035C221.235 247.584 217.302 244.348 212.79 244.558C205.126 244.916 193.629 245.083 186.348 243.475" fill="white"/>
<g opacity="0.35">
<g opacity="0.35">
<g opacity="0.35">
<g opacity="0.35">
<path opacity="0.35" d="M214.253 262.026C206.06 263.008 194.041 263.669 186.271 260.533L186.306 252.345C194.074 255.461 206.073 254.806 214.253 253.818C217.231 253.463 219.668 251.663 220.968 249.215C221.427 250.075 221.749 251.022 221.899 252.038C222.618 256.913 219.169 261.433 214.253 262.026Z" fill="#317F8B"/>
</g>
</g>
</g>
</g>
<path d="M201.718 264.894C195.909 264.894 190.059 264.276 185.502 262.44C179.979 260.212 179.8 251.506 181.418 246.323C183.01 241.223 185.71 241.231 186.796 241.47C192.207 242.666 201.405 243.034 212.694 242.507C215.391 242.381 218.019 243.254 220.101 244.964C222.181 246.673 223.544 249.078 223.938 251.735C224.371 254.651 223.621 257.547 221.827 259.889C220.035 262.227 217.435 263.709 214.505 264.062C210.679 264.523 206.21 264.894 201.718 264.894ZM186.277 245.562C185.516 246.451 184.302 250.123 184.755 254.099C184.885 255.235 185.368 257.951 187.051 258.63C192.718 260.915 202.293 261.396 214.009 259.983C215.825 259.764 217.437 258.846 218.547 257.397C219.661 255.943 220.126 254.146 219.857 252.336C219.349 248.91 216.353 246.451 212.888 246.611C204.787 246.989 193.661 247.107 186.277 245.562Z" fill="#317F8B"/>
<path d="M189.278 237.838V265.176C189.278 270.248 185.11 274.4 180.017 274.4H129.468C124.382 274.4 120.214 270.248 120.214 265.176V237.838C120.214 232.766 124.382 228.621 129.468 228.621H180.017C183.015 228.621 185.691 230.06 187.389 232.274C188.573 233.822 189.278 235.752 189.278 237.838Z" fill="white"/>
<g opacity="0.35">
<g opacity="0.35">
<g opacity="0.35">
<g opacity="0.35">
<path opacity="0.35" d="M189.276 237.838V265.176C189.276 270.248 185.11 274.398 180.018 274.398H129.469C124.377 274.398 120.211 270.248 120.211 265.176V254.95C127.803 262.66 142.733 267.499 156.426 267.571C160.826 267.595 164.375 264.129 164.689 259.757C164.693 259.713 164.696 259.669 164.699 259.626C165.036 255.791 168.208 252.685 172.063 252.408C176.454 252.093 180.161 255.323 180.595 259.521C187.223 251.371 185.281 237.206 187.389 232.274C188.574 233.824 189.276 235.751 189.276 237.838Z" fill="#317F8B"/>
</g>
</g>
</g>
</g>
<path d="M180.019 276.453H129.468C123.227 276.453 118.149 271.396 118.149 265.179V237.838C118.149 231.622 123.227 226.564 129.468 226.564H180.019C186.26 226.564 191.338 231.622 191.338 237.838V265.179C191.338 271.396 186.26 276.453 180.019 276.453ZM129.468 230.673C125.502 230.673 122.275 233.887 122.275 237.838V265.179C122.275 269.13 125.502 272.344 129.468 272.344H180.019C183.985 272.344 187.212 269.13 187.212 265.179V237.838C187.212 233.887 183.985 230.673 180.019 230.673H129.468Z" fill="#317F8B"/>
<path d="M172.652 259.459C177.061 259.459 180.635 255.899 180.635 251.508C180.635 247.117 177.061 243.557 172.652 243.557C168.243 243.557 164.669 247.117 164.669 251.508C164.669 255.899 168.243 259.459 172.652 259.459Z" fill="#22A7F0"/>
<g opacity="0.7">
<g opacity="0.7">
<g opacity="0.7">
<g opacity="0.7">
<path opacity="0.7" d="M180.635 251.508C180.635 252.052 180.583 252.581 180.479 253.097C179.742 249.462 176.518 246.726 172.654 246.726C168.785 246.726 165.56 249.462 164.823 253.097C164.72 252.581 164.668 252.054 164.668 251.508C164.668 247.115 168.243 243.559 172.654 243.559C177.058 243.559 180.635 247.115 180.635 251.508Z" fill="white"/>
</g>
</g>
</g>
</g>
<g opacity="0.35">
<g opacity="0.35">
<g opacity="0.35">
<g opacity="0.35">
<path opacity="0.35" d="M180.632 251.507C180.632 255.897 177.059 259.456 172.651 259.456C168.244 259.456 164.671 255.897 164.671 251.507C164.671 250.492 164.863 249.523 165.219 248.63C166.368 251.596 169.264 253.696 172.653 253.696C176.041 253.696 178.936 251.596 180.087 248.63C180.44 249.523 180.632 250.49 180.632 251.507Z" fill="#317F8B"/>
</g>
</g>
</g>
</g>
<path d="M172.652 260.999C167.397 260.999 163.122 256.742 163.122 251.508C163.122 246.274 167.397 242.016 172.652 242.016C177.906 242.016 182.181 246.274 182.181 251.508C182.181 256.742 177.906 260.999 172.652 260.999ZM172.652 245.099C169.104 245.099 166.217 247.974 166.217 251.508C166.217 255.042 169.104 257.917 172.652 257.917C176.2 257.917 179.087 255.042 179.087 251.508C179.087 247.974 176.2 245.099 172.652 245.099Z" fill="#317F8B"/>
<path d="M150.032 275.939C149.177 275.939 148.485 275.249 148.485 274.399V255.673L138.376 248.093V228.619C138.376 227.767 139.069 227.078 139.923 227.078C140.777 227.078 141.469 227.768 141.469 228.619V246.554L151.578 254.135V274.399C151.578 275.249 150.885 275.939 150.032 275.939Z" fill="#317F8B"/>
<path d="M155.735 289.118C164.677 289.118 173.275 285.814 179.992 279.933C189.294 271.788 204.955 262.074 222.241 268.304C229.177 270.803 233.903 275.387 237.128 280.459C245.433 261.293 262.855 260.145 270.395 271.007C270.395 271.007 257.72 331.236 253.589 332.576C247.671 334.496 233.452 332.477 233.452 332.477C233.452 332.477 183.983 325.807 155.735 325.807C127.486 325.807 78.0176 332.477 78.0176 332.477C78.0176 332.477 63.7981 334.495 57.8802 332.576C53.7493 331.236 41.0742 271.007 41.0742 271.007C48.6137 260.143 66.0365 261.293 74.3414 280.459C77.5651 275.386 82.2925 270.803 89.2287 268.304C106.514 262.074 122.175 271.788 131.478 279.933C138.194 285.812 146.793 289.118 155.735 289.118Z" fill="white"/>
<g opacity="0.35">
<path d="M270.397 271.005C270.397 271.005 257.721 331.236 253.59 332.576C247.674 334.497 233.451 332.479 233.451 332.479C233.451 332.479 183.985 325.807 155.734 325.807C127.489 325.807 78.0171 332.479 78.0171 332.479C78.0171 332.479 63.7988 334.497 57.8842 332.576C53.7533 331.236 41.0771 271.005 41.0771 271.005C42.3199 269.217 43.8258 267.753 45.5176 266.644C49.5816 284.304 55.3465 307.361 57.8842 308.184C63.7999 310.099 78.0171 308.081 78.0171 308.081C78.0171 308.081 127.489 294.736 155.734 294.736C183.985 294.736 233.451 308.081 233.451 308.081C233.451 308.081 247.674 310.099 253.59 308.184C256.127 307.361 261.892 284.304 265.956 266.644C267.648 267.754 269.154 269.218 270.397 271.005Z" fill="#317F8B"/>
</g>
<path d="M65.5073 335.453C62.4049 335.453 59.3739 335.221 57.2421 334.53C55.7884 334.058 54.5661 332.453 52.2721 325.336C50.9296 321.169 49.3183 315.368 47.4847 308.092C44.1827 294.993 40.9646 280.302 39.7343 274.594C39.0902 271.606 40.0734 268.515 42.3015 266.529C46.5787 262.715 52.3118 261.247 58.0291 262.501C61.6327 263.291 65.1388 265.165 68.1687 267.919C70.678 270.202 72.8597 273.052 74.6785 276.424C78.3695 271.732 83.0163 268.359 88.5295 266.372C94.7763 264.12 101.312 263.673 107.957 265.043C113.322 266.15 118.777 268.443 124.17 271.863C125.131 272.473 125.414 273.743 124.803 274.7C124.191 275.658 122.916 275.939 121.954 275.33C110.854 268.292 100.081 266.579 89.9333 270.237C84.2103 272.299 79.551 276.107 76.0869 281.559C75.6775 282.203 74.9427 282.568 74.1819 282.509C73.4199 282.449 72.7531 281.975 72.4492 281.274C68.9794 273.266 63.4005 267.887 57.1424 266.516C52.7359 265.55 48.3295 266.671 45.0536 269.593C43.9264 270.597 43.4343 272.184 43.7688 273.735C44.93 279.122 47.9734 293.023 51.1439 305.723C52.8867 312.703 54.4311 318.383 55.7352 322.602C57.5608 328.509 58.5144 330.242 58.8535 330.725C63.5139 332.026 73.9959 330.976 77.7288 330.446C77.7333 330.445 77.7379 330.445 77.7424 330.444C78.2379 330.377 127.674 323.755 155.736 323.755C183.8 323.755 233.234 330.377 233.73 330.444C233.734 330.445 233.74 330.445 233.745 330.446C237.479 330.976 247.96 332.026 252.62 330.725C252.953 330.251 253.881 328.568 255.645 322.902C256.919 318.816 258.426 313.309 260.127 306.535C263.159 294.456 266.065 281.313 267.528 274.555C268.007 272.34 267.174 270.07 265.405 268.771C262.029 266.292 257.845 265.552 253.626 266.688C247.58 268.316 242.394 273.496 239.024 281.276C238.721 281.975 238.055 282.45 237.292 282.51C236.528 282.57 235.796 282.204 235.387 281.56C231.922 276.11 227.264 272.3 221.541 270.238C211.304 266.548 200.439 268.321 189.244 275.508C188.286 276.122 187.01 275.848 186.392 274.893C185.775 273.94 186.051 272.668 187.009 272.053C192.435 268.57 197.925 266.225 203.327 265.083C210.038 263.665 216.638 264.1 222.945 266.373C228.458 268.36 233.105 271.734 236.797 276.426C240.672 269.252 246.176 264.436 252.55 262.721C257.93 261.272 263.508 262.271 267.854 265.463C270.927 267.719 272.382 271.627 271.562 275.42C270.013 282.58 266.943 296.453 263.784 308.906C261.993 315.969 260.419 321.595 259.107 325.628C256.869 332.51 255.667 334.067 254.23 334.532C247.957 336.568 233.889 334.617 233.172 334.516C232.396 334.412 183.44 327.864 155.737 327.864C128.03 327.864 79.0782 334.412 78.3026 334.516C77.8263 334.58 71.5342 335.453 65.5073 335.453Z" fill="#317F8B"/>
<path d="M249.916 332.576H253.59C257.903 332.576 261.814 330.057 263.571 326.133C269.07 313.867 279.098 286.914 269.705 270.466C269.432 269.986 269.14 269.524 268.83 269.082C268.83 269.082 259.813 260.913 253.335 272.469C247.284 283.265 234.583 329.424 249.916 332.576Z" fill="#AFAFB2"/>
<g opacity="0.7">
<g opacity="0.7">
<g opacity="0.7">
<g opacity="0.7">
<path opacity="0.7" d="M250.018 280.163C250.18 279.905 250.342 279.661 250.499 279.434C258.464 267.878 269.553 276.046 269.553 276.046C269.933 276.489 270.294 276.951 270.628 277.431C271.74 279.015 272.629 280.694 273.324 282.452C272.875 278.132 271.754 274.049 269.706 270.467C269.433 269.987 269.14 269.525 268.831 269.083C268.831 269.083 259.814 260.914 253.335 272.47C252.352 274.219 251.199 276.891 250.018 280.163Z" fill="white"/>
</g>
</g>
</g>
</g>
<path d="M273.275 283.685C273.182 283.685 273.088 283.677 272.993 283.661L250.455 279.914C249.528 279.76 248.902 278.887 249.057 277.963C249.211 277.04 250.088 276.417 251.014 276.571L273.552 280.318C274.478 280.472 275.104 281.345 274.95 282.268C274.811 283.099 274.091 283.685 273.275 283.685Z" fill="#317F8B"/>
<path d="M273.131 295.813C273.055 295.813 272.979 295.809 272.902 295.797L246.537 292.267C245.606 292.143 244.953 291.29 245.078 290.363C245.203 289.435 246.059 288.785 246.991 288.909L273.356 292.44C274.287 292.564 274.94 293.417 274.815 294.344C274.7 295.195 273.97 295.813 273.131 295.813Z" fill="#317F8B"/>
<path d="M270.806 307.692C270.737 307.692 270.668 307.688 270.598 307.68L243.834 304.417C242.901 304.303 242.238 303.458 242.351 302.53C242.466 301.602 243.313 300.94 244.246 301.054L271.01 304.317C271.943 304.431 272.606 305.275 272.492 306.204C272.387 307.063 271.653 307.692 270.806 307.692Z" fill="#317F8B"/>
<path d="M266.562 320.647C266.511 320.647 266.459 320.645 266.407 320.641L242.479 318.49C241.543 318.407 240.854 317.582 240.938 316.651C241.021 315.719 241.849 315.031 242.785 315.116L266.713 317.266C267.648 317.35 268.339 318.174 268.254 319.106C268.174 319.986 267.432 320.647 266.562 320.647Z" fill="#317F8B"/>
<g opacity="0.35">
<g opacity="0.35">
<g opacity="0.35">
<g opacity="0.35">
<path opacity="0.35" d="M249.914 332.576H253.588C257.902 332.576 261.813 330.057 263.569 326.133C264.991 322.954 266.72 318.795 268.337 314.083C266.132 317.729 261.65 320.041 256.73 320.041H252.351C246.119 318.966 243.774 312.878 243.681 304.899C241.574 318.367 242.153 330.98 249.914 332.576Z" fill="#317F8B"/>
</g>
</g>
</g>
</g>
<path d="M253.59 334.27H249.916C249.801 334.27 249.686 334.259 249.573 334.235C246.603 333.624 244.359 331.707 242.902 328.534C239.467 321.055 241.136 308.025 243.142 298.412C245.594 286.664 249.379 276.052 251.851 271.643C254.123 267.588 256.986 265.254 260.359 264.706C265.532 263.866 269.796 267.666 269.975 267.828C270.069 267.913 270.153 268.009 270.226 268.111C270.565 268.595 270.888 269.106 271.186 269.629C275.479 277.147 276.39 287.43 273.894 300.191C271.865 310.565 268.006 320.4 265.126 326.823C263.099 331.348 258.573 334.27 253.59 334.27ZM250.101 330.882H253.59C257.23 330.882 260.539 328.748 262.018 325.444C264.825 319.182 268.585 309.604 270.554 299.545C272.891 287.601 272.107 278.1 268.228 271.304C268.017 270.934 267.791 270.572 267.557 270.227C266.919 269.708 264.025 267.533 260.887 268.054C258.599 268.434 256.558 270.197 254.822 273.295C252.533 277.377 248.83 287.809 246.474 299.102C243.785 311.99 243.615 321.942 245.996 327.126C246.962 329.23 248.306 330.461 250.101 330.882Z" fill="#317F8B"/>
<path d="M61.5565 332.576H57.8826C53.5691 332.576 49.6582 330.057 47.9017 326.133C42.4022 313.867 32.3749 286.914 41.7672 270.466C42.0405 269.986 42.333 269.524 42.6426 269.082C42.6426 269.082 51.6596 260.913 58.1377 272.469C64.1883 283.265 76.8883 329.424 61.5565 332.576Z" fill="#AFAFB2"/>
<g opacity="0.7">
<g opacity="0.7">
<g opacity="0.7">
<g opacity="0.7">
<path opacity="0.7" d="M61.4532 280.163C61.2911 279.905 61.1289 279.661 60.9713 279.434C53.0066 267.878 41.9179 276.046 41.9179 276.046C41.5381 276.489 41.1763 276.951 40.843 277.431C39.7306 279.015 38.8416 280.694 38.1465 282.452C38.5955 278.132 39.717 274.049 41.7648 270.467C42.0381 269.987 42.3307 269.525 42.6402 269.083C42.6402 269.083 51.6572 260.914 58.1353 272.47C59.1173 274.219 60.2717 276.891 61.4532 280.163Z" fill="white"/>
</g>
</g>
</g>
</g>
<path d="M38.1954 283.685C37.379 283.685 36.6589 283.097 36.5195 282.27C36.3653 281.347 36.9901 280.474 37.9176 280.319L60.4555 276.572C61.382 276.418 62.2585 277.04 62.4127 277.964C62.5669 278.887 61.9421 279.76 61.0146 279.915L38.4766 283.662C38.3825 283.678 38.2884 283.685 38.1954 283.685Z" fill="#317F8B"/>
<path d="M38.3388 295.813C37.4997 295.813 36.7694 295.195 36.6549 294.345C36.5302 293.418 37.1833 292.565 38.1143 292.441L64.4804 288.909C65.4125 288.784 66.2674 289.435 66.3933 290.363C66.518 291.29 65.8649 292.143 64.9339 292.267L38.5679 295.798C38.4907 295.809 38.4148 295.813 38.3388 295.813Z" fill="#317F8B"/>
<path d="M40.6648 307.692C39.8178 307.692 39.0841 307.063 38.9787 306.204C38.8642 305.275 39.5275 304.431 40.4607 304.316L67.2248 301.054C68.1569 300.941 69.0051 301.6 69.1196 302.53C69.2341 303.458 68.5708 304.303 67.6376 304.417L40.8735 307.68C40.8032 307.689 40.7329 307.692 40.6648 307.692Z" fill="#317F8B"/>
<path d="M44.9097 320.647C44.0388 320.647 43.2972 319.986 43.2179 319.106C43.1339 318.174 43.8234 317.351 44.7589 317.266L68.687 315.116C69.6236 315.032 70.4491 315.719 70.5342 316.65C70.6181 317.582 69.9286 318.406 68.9931 318.49L45.065 320.641C45.0129 320.645 44.9607 320.647 44.9097 320.647Z" fill="#317F8B"/>
<g opacity="0.35">
<g opacity="0.35">
<g opacity="0.35">
<g opacity="0.35">
<path opacity="0.35" d="M61.5557 332.576H57.8818C53.5683 332.576 49.6574 330.057 47.901 326.133C46.479 322.954 44.7498 318.795 43.1328 314.083C45.3383 317.729 49.8196 320.041 54.7397 320.041H59.1189C65.351 318.966 67.696 312.878 67.7889 304.899C69.8958 318.367 69.3163 330.98 61.5557 332.576Z" fill="#317F8B"/>
</g>
</g>
</g>
</g>
<path d="M61.5556 334.27H57.8817C52.9003 334.27 48.3725 331.348 46.3474 326.823C43.4683 320.401 39.6084 310.567 37.5787 300.192C35.0829 287.431 35.9935 277.148 40.2865 269.629C40.5847 269.106 40.9079 268.596 41.2458 268.112C41.3184 268.009 41.4023 267.914 41.4964 267.829C41.6756 267.666 45.9403 263.867 51.1132 264.707C54.4855 265.255 57.3487 267.59 59.6211 271.644C62.0931 276.053 65.8781 286.665 68.3297 298.413C70.3356 308.027 72.0047 321.056 68.57 328.535C67.113 331.708 64.8689 333.626 61.8992 334.237C61.7858 334.259 61.6701 334.27 61.5556 334.27ZM43.9139 270.228C43.6792 270.572 43.4547 270.934 43.2438 271.303C39.3635 278.1 38.58 287.6 40.917 299.545C42.8855 309.605 46.6444 319.182 49.4532 325.444C50.933 328.749 54.2406 330.883 57.8805 330.883H61.3696C63.1646 330.462 64.5095 329.231 65.4756 327.126C67.8557 321.942 67.6867 311.99 64.9982 299.102C62.6419 287.809 58.9385 277.377 56.6502 273.295C54.9142 270.197 52.8731 268.434 50.5848 268.054C47.4529 267.534 44.5591 269.703 43.9139 270.228Z" fill="#317F8B"/>
<path d="M103.027 331.03C102.785 331.03 102.54 330.974 102.311 330.854C101.554 330.46 101.261 329.528 101.658 328.774C108.118 316.48 108.214 302.654 101.942 287.682C97.211 276.389 90.4369 268.661 90.3689 268.585C89.8042 267.947 89.8654 266.973 90.5061 266.409C91.1468 265.847 92.1242 265.907 92.6889 266.545C92.9781 266.871 99.8258 274.669 104.761 286.408C107.673 293.334 109.296 300.189 109.589 306.781C109.956 315.07 108.21 322.949 104.399 330.202C104.122 330.73 103.584 331.03 103.027 331.03Z" fill="#317F8B"/>
<path d="M209.071 331.03C208.513 331.03 207.976 330.73 207.699 330.203C203.888 322.95 202.141 315.071 202.509 306.782C202.801 300.19 204.425 293.335 207.337 286.409C212.272 274.67 219.12 266.871 219.409 266.546C219.975 265.908 220.952 265.847 221.593 266.41C222.234 266.973 222.295 267.946 221.729 268.585C221.661 268.661 214.887 276.389 210.156 287.681C203.884 302.655 203.98 316.48 210.44 328.774C210.835 329.528 210.543 330.459 209.786 330.854C209.557 330.974 209.312 331.03 209.071 331.03Z" fill="#317F8B"/>
<g opacity="0.35">
<path d="M207.001 182.991C205.216 185.025 203.339 186.956 201.384 188.77C196.743 193.074 191.658 196.737 186.217 199.639C177.026 204.55 166.831 207.303 156.094 207.354C145.604 207.4 135.62 204.863 126.57 200.25C120.644 197.225 115.121 193.316 110.124 188.657C107.638 186.335 105.281 183.833 103.068 181.168C107.076 179.936 111.057 178.507 114.702 177.094C119.23 166.23 124.511 155.105 130.669 143.979H180.801C185.892 153.178 190.383 162.372 194.344 171.428C198.12 173.621 202.467 177.751 207.001 182.991Z" fill="#317F8B"/>
</g>
<path d="M232.29 133.386C231.417 133.48 230.633 132.851 230.539 131.981L225.646 86.6315C225.552 85.7619 226.183 84.9815 227.057 84.8878C236.215 83.9074 244.437 90.5076 245.422 99.6298L247.092 115.095C248.076 124.217 241.448 132.406 232.29 133.386Z" fill="white"/>
<path d="M232.117 133.786C231.667 133.786 231.232 133.635 230.877 133.349C230.465 133.018 230.207 132.547 230.151 132.023L225.258 86.6734C225.201 86.1493 225.353 85.6343 225.685 85.2244C226.017 84.8144 226.49 84.5569 227.016 84.5004C236.377 83.4986 244.808 90.2671 245.814 99.5892L247.482 115.054C247.969 119.569 246.662 124.003 243.8 127.54C240.939 131.076 236.866 133.29 232.332 133.776L232.29 133.388L232.332 133.776C232.261 133.783 232.188 133.786 232.117 133.786ZM228.852 85.1814C228.273 85.1814 227.689 85.2119 227.1 85.2752C226.782 85.3091 226.496 85.4649 226.295 85.7123C226.095 85.9607 226.003 86.2713 226.037 86.5887L230.93 131.939C230.964 132.256 231.12 132.541 231.37 132.74C231.619 132.94 231.931 133.032 232.25 132.998C236.575 132.535 240.46 130.422 243.191 127.048C245.921 123.675 247.169 119.444 246.704 115.135L245.036 99.6705C244.138 91.3638 237.06 85.1814 228.852 85.1814Z" fill="#317F8B"/>
<g opacity="0.35">
<g opacity="0.35">
<g opacity="0.35">
<g opacity="0.35">
<path opacity="0.35" d="M246.31 107.843L247.095 115.096C248.078 124.215 241.451 132.406 232.291 133.39C231.418 133.485 230.635 132.85 230.541 131.981L229.235 119.926C229.539 120.449 230.133 120.77 230.774 120.707L231.854 120.588C239.09 119.814 244.751 114.534 246.31 107.843Z" fill="#317F8B"/>
</g>
</g>
</g>
</g>
<path d="M232.114 135.57C231.257 135.57 230.431 135.28 229.754 134.737C228.97 134.108 228.479 133.211 228.371 132.214L223.478 86.8642C223.37 85.867 223.66 84.8867 224.291 84.1051C224.923 83.3236 225.823 82.8346 226.824 82.7273C237.164 81.6204 246.481 89.0993 247.592 99.3983L249.26 114.863C249.799 119.852 248.354 124.751 245.193 128.659C242.032 132.565 237.532 135.013 232.522 135.548C232.387 135.562 232.25 135.57 232.114 135.57ZM232.06 131.226H232.059C232.059 131.226 232.059 131.226 232.06 131.226ZM227.882 86.9975L232.646 131.152C236.26 130.619 239.492 128.781 241.798 125.931C244.228 122.928 245.338 119.163 244.924 115.327L243.256 99.8625C242.423 92.1419 235.592 86.4825 227.882 86.9975Z" fill="#317F8B"/>
<path d="M76.7674 100.974C77.6406 100.88 78.4241 101.509 78.5182 102.379L83.4111 147.729C83.5052 148.598 82.8736 149.379 82.0005 149.472C72.8418 150.453 64.6197 143.853 63.6354 134.73L61.9674 119.265C60.9809 110.143 67.6087 101.954 76.7674 100.974Z" fill="white"/>
<path d="M80.2044 149.959C71.6024 149.96 64.1831 143.48 63.2443 134.772L61.5762 119.307C60.5704 109.985 67.3661 101.587 76.7255 100.585L76.7675 100.974L76.7255 100.585C77.8107 100.469 78.7904 101.255 78.9072 102.337L83.8001 147.687C83.9169 148.769 83.1277 149.744 82.0414 149.86C81.4257 149.926 80.8111 149.959 80.2044 149.959ZM76.9376 101.354C76.8945 101.354 76.8525 101.357 76.8083 101.361C67.8786 102.317 61.3948 110.33 62.3553 119.224L64.0233 134.689C64.9826 143.583 73.0267 150.041 81.9575 149.085C82.614 149.015 83.0914 148.426 83.0211 147.772L78.1282 102.422C78.0624 101.81 77.5408 101.354 76.9376 101.354Z" fill="#317F8B"/>
<g opacity="0.35">
<g opacity="0.35">
<g opacity="0.35">
<g opacity="0.35">
<path opacity="0.35" d="M82.0583 135.147L83.4144 147.729C83.5097 148.598 82.8724 149.379 82.0004 149.473C77.1926 149.985 72.6387 148.412 69.2573 145.478C66.2037 142.828 64.1059 139.063 63.6376 134.733L62.9346 128.216C66.1515 133.655 72.3734 137.017 79.0885 136.3L80.7497 136.122C81.3552 136.056 81.8349 135.667 82.0583 135.147Z" fill="#317F8B"/>
</g>
</g>
</g>
</g>
<path d="M80.2037 151.741C70.6991 151.743 62.5031 144.583 61.4655 134.962L59.7975 119.497C58.6863 109.198 66.1951 99.9189 76.5354 98.8121C78.6015 98.5908 80.4656 100.086 80.6879 102.145L85.5808 147.496C85.803 149.556 84.3017 151.41 82.2334 151.632C81.5519 151.706 80.8738 151.741 80.2037 151.741ZM76.413 103.209C68.7703 104.338 63.3025 111.313 64.1348 119.034L65.8028 134.499C66.6362 142.219 73.467 147.878 81.1766 147.364L76.413 103.209Z" fill="#317F8B"/>
<path d="M154.537 194.905C197.635 194.905 232.574 160.106 232.574 117.179C232.574 74.253 197.635 39.4542 154.537 39.4542C111.438 39.4542 76.5 74.253 76.5 117.179C76.5 160.106 111.438 194.905 154.537 194.905Z" fill="white"/>
<path d="M154.461 195.297C144.893 195.297 135.546 193.588 126.635 190.205C117.158 186.609 108.573 181.281 101.116 174.371C93.6578 167.46 87.7047 159.315 83.4196 150.161C78.9836 140.683 76.5412 130.535 76.159 119.996C75.7769 109.458 77.4789 99.1599 81.2175 89.3884C84.8279 79.95 90.1778 71.3993 97.1151 63.9712C104.053 56.5432 112.233 50.6127 121.424 46.3447C130.94 41.9265 141.13 39.4938 151.71 39.1132C162.291 38.7326 172.63 40.4278 182.441 44.1514C191.917 47.7474 200.502 53.0759 207.96 59.9856C215.418 66.8964 221.371 75.0416 225.656 84.1954C230.092 93.6733 232.534 103.822 232.917 114.36C233.299 124.899 231.597 135.197 227.858 144.968C224.248 154.407 218.898 162.957 211.959 170.385C205.021 177.814 196.843 183.743 187.652 188.011C178.137 192.429 167.947 194.862 157.366 195.242C156.395 195.279 155.426 195.297 154.461 195.297ZM154.573 39.8428C153.63 39.8428 152.689 39.8597 151.738 39.8936C108.952 41.4318 75.3993 77.3524 76.9426 119.967C77.6898 140.61 86.4642 159.728 101.649 173.798C116.13 187.218 134.791 194.514 154.467 194.515C155.422 194.515 156.376 194.498 157.336 194.463C178.062 193.719 197.257 184.98 211.383 169.856C225.51 154.732 232.878 135.034 232.131 114.391C230.623 72.7229 196.104 39.8428 154.573 39.8428Z" fill="#317F8B"/>
<g opacity="0.35">
<g opacity="0.35">
<g opacity="0.35">
<g opacity="0.35">
<path opacity="0.35" d="M231.388 103.652C232.011 107.146 232.394 110.726 232.526 114.378C234.074 157.275 200.42 193.306 157.35 194.856C114.28 196.398 78.1058 162.878 76.5489 119.982C76.5035 118.748 76.4877 117.513 76.5024 116.294C83.1291 153.917 116.758 181.858 156.165 180.443C197.997 178.937 230.941 144.91 231.388 103.652Z" fill="#317F8B"/>
</g>
</g>
</g>
</g>
<path d="M154.461 197.079C144.674 197.079 135.114 195.33 125.998 191.871C116.307 188.193 107.524 182.743 99.8976 175.676C92.2708 168.608 86.1816 160.276 81.799 150.914C77.261 141.219 74.763 130.837 74.3729 120.059C73.9829 109.282 75.7234 98.7477 79.5482 88.7525C83.2414 79.0996 88.7126 70.3524 95.8087 62.756C102.905 55.1597 111.268 49.0937 120.669 44.7297C130.403 40.2099 140.826 37.7218 151.647 37.3333C162.469 36.9448 173.044 38.6784 183.079 42.4879C192.771 46.1663 201.553 51.6157 209.18 58.6834C216.807 65.7512 222.896 74.0828 227.278 83.4455C231.816 93.1403 234.314 103.522 234.705 114.3C235.095 125.077 233.354 135.611 229.529 145.606C225.836 155.259 220.365 164.007 213.269 171.603C206.173 179.199 197.808 185.264 188.407 189.629C178.674 194.149 168.251 196.637 157.43 197.026C156.439 197.061 155.448 197.079 154.461 197.079ZM154.574 41.6261C153.653 41.6261 152.733 41.6431 151.804 41.6758C110.004 43.1779 77.2248 78.2706 78.7329 119.904C79.4631 140.071 88.0356 158.748 102.87 172.495C117.018 185.605 135.248 192.734 154.471 192.734C155.403 192.734 156.338 192.717 157.274 192.683C177.523 191.956 196.275 183.418 210.077 168.643C223.879 153.868 231.077 134.624 230.346 114.457C228.87 73.7474 195.146 41.6261 154.574 41.6261Z" fill="#317F8B"/>
<path d="M232.348 116.381C233.13 131.57 228.904 145.926 221.038 158.025C215.14 167.097 189.834 183.737 157.628 185.668C127.766 187.46 99.7686 172.981 92.9718 164.558C83.9049 153.321 78.2296 139.472 77.4484 124.282C75.3812 84.0858 109.198 65.6529 151.976 63.4709C194.751 61.2889 230.281 76.1846 232.348 116.381Z" fill="#17A2B8"/>
<path d="M152.445 187.316C137.597 187.316 124.682 183.63 116.11 180.337C105.255 176.167 95.7128 170.34 91.8019 165.493C82.2032 153.598 76.7218 139.373 75.9496 124.358C75.4371 114.394 77.0869 105.354 80.8504 97.4862C84.3939 90.0818 89.8289 83.6669 97.0066 78.4174C110.119 68.8266 129.1 63.1423 151.897 61.9801C174.694 60.818 194.158 64.5405 208.186 72.7467C215.864 77.2383 221.929 83.0672 226.213 90.0728C230.765 97.5156 233.333 106.342 233.844 116.305C234.617 131.321 230.622 146.028 222.294 158.837C218.835 164.159 210.241 170.683 199.869 175.86C190.757 180.408 176.048 186.06 157.717 187.159C155.937 187.265 154.177 187.316 152.445 187.316ZM159.946 64.7573C157.364 64.7573 154.734 64.8251 152.051 64.9618C129.841 66.0945 111.421 71.58 98.7812 80.8242C84.6695 91.1457 77.9952 105.742 78.9443 124.205C79.6836 138.59 84.9382 152.22 94.1389 163.623C96.8762 167.015 104.555 172.698 117.189 177.552C126.484 181.122 141.028 185.169 157.538 184.179C175.362 183.109 189.667 177.613 198.527 173.19C210.401 167.263 217.397 160.879 219.78 157.214C227.763 144.936 231.592 130.842 230.853 116.458C229.904 97.9944 221.767 84.1536 206.67 75.3217C194.781 68.3669 178.741 64.7573 159.946 64.7573Z" fill="#317F8B"/>
<g opacity="0.5">
<g opacity="0.5">
<g opacity="0.5">
<g opacity="0.5">
<path d="M216.812 113.476C217.786 105.941 214.132 99.2636 208.651 98.5607C203.17 97.8578 197.937 103.396 196.963 110.93C195.989 118.464 199.643 125.142 205.124 125.845C210.605 126.548 215.838 121.01 216.812 113.476Z" fill="white"/>
</g>
</g>
</g>
</g>
<g opacity="0.5">
<g opacity="0.5">
<g opacity="0.5">
<g opacity="0.5">
<path d="M201.301 141.481C202.224 138.117 200.623 134.752 197.725 133.963C194.828 133.174 191.73 135.261 190.808 138.625C189.885 141.988 191.486 145.354 194.384 146.142C197.281 146.931 200.379 144.844 201.301 141.481Z" fill="white"/>
</g>
</g>
</g>
</g>
<g opacity="0.35">
<path d="M215.357 79.6497C225.288 88.1653 231.516 100.235 232.348 116.379C233.129 131.572 228.901 145.926 221.041 158.025C215.141 167.097 189.833 183.736 157.627 185.672C146.256 186.358 135.158 184.679 125.393 181.87C164.929 178.652 195.748 158.24 203.062 146.989C213.047 131.633 218.41 113.411 217.415 94.1365C217.155 88.9841 216.448 84.1605 215.357 79.6497Z" fill="#317F8B"/>
</g>
<path d="M81.5175 91.7985C81.0776 91.7985 80.6353 91.6618 80.2566 91.3784C79.3653 90.7098 79.1601 89.4708 79.7668 88.5571C83.0053 83.258 87.1407 78.4151 92.0574 74.1641C96.8448 70.026 102.412 66.413 108.605 63.4258C114.668 60.5017 121.369 58.1594 128.522 56.463C135.61 54.7825 143.177 53.7276 151.015 53.3278C158.723 52.9348 166.276 53.2002 173.464 54.115C180.718 55.0388 187.615 56.6279 193.961 58.8359C200.455 61.0958 206.397 64.0142 211.622 67.5097C216.993 71.1034 221.639 75.3296 225.433 80.072C226.096 80.8027 226.164 81.9219 225.543 82.7351C224.843 83.6544 223.526 83.8329 222.603 83.1349L222.383 82.9722L222.217 82.7622C208.169 65.1255 182.294 55.9186 151.229 57.5032C119.992 59.0968 95.2403 71.2265 83.3205 90.782L83.2661 90.8713L83.1946 90.965C82.7841 91.5105 82.1548 91.7985 81.5175 91.7985Z" fill="#317F8B"/>
<g opacity="0.5">
<g opacity="0.5">
<g opacity="0.5">
<g opacity="0.5">
<path d="M96.0704 147.308C96.0704 147.308 81.5323 108.291 102.177 91.3944C122.821 74.4975 153.694 72.9874 153.074 74.9955C153.074 74.9955 119.323 84.9794 107.334 112.571C98.0888 133.847 96.0704 147.308 96.0704 147.308Z" fill="white"/>
</g>
</g>
</g>
</g>
<path d="M225.261 337.048H86.8585C82.3772 337.048 78.7441 333.43 78.7441 328.966C78.7441 326.395 80.8374 324.31 83.4193 324.31H228.7C231.282 324.31 233.376 326.395 233.376 328.966C233.376 333.431 229.742 337.048 225.261 337.048Z" fill="#E6E9FA"/>
<g opacity="0.3">
<g opacity="0.3">
<g opacity="0.3">
<g opacity="0.3">
<path opacity="0.3" d="M233.373 328.968C233.373 329.851 233.229 330.699 232.966 331.495C232.239 329.867 230.604 328.737 228.702 328.737H83.4205C82.1312 328.737 80.961 329.256 80.1151 330.104C79.7125 330.505 79.3825 330.972 79.1512 331.496C78.8882 330.7 78.7441 329.853 78.7441 328.969C78.7441 327.685 79.2646 326.519 80.1162 325.677C80.9621 324.829 82.1323 324.31 83.4216 324.31H228.702C231.285 324.309 233.373 326.394 233.373 328.968Z" fill="white"/>
</g>
</g>
</g>
</g>
<g opacity="0.35">
<g opacity="0.35">
<g opacity="0.35">
<g opacity="0.35">
<path opacity="0.35" d="M233.373 328.968C233.373 331.197 232.466 333.221 230.996 334.679C229.531 336.143 227.499 337.047 225.261 337.047H86.8609C82.3797 337.047 78.7432 333.431 78.7432 328.968C78.7432 328.109 78.9756 327.303 79.3872 326.609C80.6141 329.502 83.5023 331.536 86.8598 331.536H225.26C227.499 331.536 229.531 330.632 230.994 329.168C231.727 328.438 232.32 327.571 232.727 326.609C233.142 327.303 233.373 328.109 233.373 328.968Z" fill="#317F8B"/>
</g>
</g>
</g>
</g>
<path d="M225.262 339.104H86.8596C81.2478 339.104 76.6826 334.557 76.6826 328.968C76.6826 325.268 79.7057 322.257 83.4204 322.257H228.701C232.416 322.257 235.439 325.268 235.439 328.968C235.439 334.556 230.874 339.104 225.262 339.104ZM83.4193 326.366C81.9792 326.366 80.8067 327.532 80.8067 328.968C80.8067 332.292 83.5213 334.995 86.8585 334.995H225.262C228.599 334.995 231.314 332.292 231.314 328.968C231.314 327.533 230.143 326.366 228.701 326.366H83.4193Z" fill="#317F8B"/>
<path d="M241.454 233.32L227.917 324.308H84.2044L83.7146 321.015L70.6608 233.32C70.2333 230.439 72.4762 227.855 75.3949 227.855H236.719C239.644 227.855 241.881 230.439 241.454 233.32Z" fill="#FF66AC"/>
<path d="M241.454 233.32L227.917 324.308H84.2044L83.7146 321.015L70.6608 233.32C70.2333 230.439 72.4762 227.855 75.3949 227.855H236.719C239.644 227.855 241.881 230.439 241.454 233.32Z" fill="#E6E9FA"/>
<g opacity="0.5">
<g opacity="0.5">
<g opacity="0.5">
<g opacity="0.5">
<path opacity="0.5" d="M75.7643 238.968C75.3368 236.087 77.5797 233.503 80.4984 233.503H241.428L241.455 233.321C241.882 230.44 239.645 227.856 236.721 227.856H75.3969C72.4782 227.856 70.2353 230.44 70.6627 233.321L83.7154 321.017L84.2052 324.309H88.4677L75.7643 238.968Z" fill="white"/>
</g>
</g>
</g>
</g>
<g opacity="0.35">
<g opacity="0.35">
<g opacity="0.35">
<g opacity="0.35">
<path opacity="0.35" d="M232.185 227.855H220.857C225.152 243.529 222.782 278.922 195.071 297.419C160.285 320.639 97.5923 320.491 84.2822 321.015L84.7721 324.308H223.382L236.919 233.32C237.347 230.439 235.109 227.855 232.185 227.855Z" fill="#317F8B"/>
</g>
</g>
</g>
</g>
<path d="M229.695 326.366H82.4252L68.6241 233.62C68.3316 231.656 68.911 229.669 70.2128 228.166C71.5145 226.662 73.4048 225.801 75.3971 225.801H236.723C238.717 225.801 240.606 226.662 241.907 228.166C243.209 229.669 243.789 231.656 243.496 233.62L229.695 326.366ZM85.9846 322.256H226.136L239.415 233.017C239.533 232.226 239.308 231.455 238.783 230.849C238.258 230.242 237.527 229.909 236.723 229.909H75.3971C74.5931 229.909 73.8617 230.244 73.3367 230.849C72.8117 231.455 72.5872 232.226 72.7051 233.017L85.9846 322.256Z" fill="#317F8B"/>
<g opacity="0.3">
<g opacity="0.3">
<g opacity="0.3">
<g opacity="0.3">
<path opacity="0.3" d="M95.6445 303.05C90.1926 291.081 86.2227 270.649 87.1174 258.624C88.0121 246.6 95.0141 250.279 97.1844 265.682C102.959 306.675 98.0779 308.395 95.6445 303.05Z" fill="white"/>
</g>
</g>
</g>
</g>
<path d="M174.836 265.759C175.012 264.223 175.216 262.67 174.913 261.108C174.778 260.938 174.654 260.764 174.52 260.595C174.073 260.435 173.638 260.226 173.174 260.109C169.903 259.268 166.588 258.935 163.22 259.224C158.828 259.601 154.797 260.951 151.331 263.731C150.075 264.734 148.931 265.867 147.76 266.966C147.446 267.264 147.204 267.388 146.763 267.187C145.726 266.718 144.608 266.507 143.473 266.451C140.428 266.313 137.711 267.293 135.177 268.878C132.43 270.602 130.217 272.904 128.155 275.37C127.278 276.415 127.619 277.579 128.925 278.018C129.75 278.286 130.574 278.549 131.398 278.818C133.374 279.455 135.345 280.086 137.314 280.722C137.31 280.783 137.315 280.815 137.306 280.845C137.29 280.884 137.273 280.928 137.246 280.965C136.424 282.017 136.624 282.991 137.49 283.906C137.583 284.008 137.663 284.128 137.745 284.238C138.199 284.832 138.662 285.433 139.143 286.052C138.487 286.557 137.841 286.986 137.271 287.504C136.983 287.765 136.729 288.145 136.62 288.521C136.435 289.127 136.751 289.747 137.293 290.066C137.868 290.41 138.459 290.395 138.995 290.011C139.674 289.53 140.323 289.009 141.013 288.483C141.665 289.339 142.283 290.149 142.903 290.949C143.614 291.86 144.104 292.016 145.206 291.712C145.407 291.65 145.605 291.607 145.842 291.55C145.858 291.785 145.876 291.973 145.887 292.149C146.027 294.986 146.157 297.828 146.313 300.657C146.384 301.999 147.448 302.632 148.665 302.058C149.764 301.541 150.861 300.995 151.938 300.413C154.421 299.068 156.679 297.421 158.481 295.232C160.737 292.476 161.985 289.398 161.401 285.761C161.376 285.618 161.496 285.373 161.621 285.3C162.728 284.589 163.864 283.924 164.972 283.208C167.476 281.583 169.488 279.471 171.062 276.948C173.201 273.518 174.381 269.754 174.836 265.759ZM138.944 278.035C136.663 277.295 134.299 276.527 131.87 275.74C134.38 273.084 137.035 270.764 140.612 269.785C142.157 269.361 143.943 269.398 144.998 269.824C142.995 272.546 140.988 275.268 138.944 278.035ZM158.124 289.71C157.545 291.552 156.438 293.052 155.075 294.389C153.381 296.032 151.409 297.259 149.277 298.377C149.149 295.768 149.017 293.216 148.888 290.716C152.112 289.467 155.264 288.248 158.432 287.022C158.555 287.892 158.405 288.813 158.124 289.71ZM170.028 272.243C168.99 274.681 167.63 276.901 165.688 278.74C164.191 280.151 162.492 281.282 160.703 282.289C155.852 285.016 150.653 286.897 145.337 288.487C145.077 288.561 144.918 288.548 144.747 288.311C144.376 287.785 143.96 287.279 143.568 286.761C143.542 286.732 143.533 286.683 143.495 286.59C143.631 286.482 143.776 286.375 143.923 286.263C146.956 283.943 150.004 281.631 153.038 279.307C153.915 278.644 153.953 277.504 153.142 276.847C152.575 276.385 151.827 276.392 151.173 276.882C149.347 278.269 147.526 279.656 145.705 281.048C144.347 282.083 143 283.113 141.589 284.19C141.105 283.56 140.638 282.985 140.216 282.38C140.144 282.272 140.217 281.998 140.315 281.864C141.932 279.461 143.535 277.045 145.218 274.683C146.882 272.339 148.775 270.172 150.857 268.185C152.808 266.306 154.924 264.648 157.481 263.66C159.121 263.024 160.813 262.592 162.56 262.405C162.719 262.383 162.949 262.541 163.061 262.687C164.838 264.975 166.593 267.266 168.354 269.562C168.883 270.246 169.404 270.943 169.949 271.618C170.112 271.821 170.132 271.995 170.028 272.243ZM171.081 269.042C169.326 266.751 167.612 264.523 165.895 262.285C165.897 262.234 165.912 262.174 165.92 262.119C167.919 262.357 169.923 262.601 171.947 262.843C171.909 265.014 171.587 267.003 171.081 269.042Z" fill="#317F8B"/>
<path d="M169.952 271.617C169.407 270.941 168.886 270.245 168.358 269.561C166.598 267.265 164.841 264.974 163.064 262.685C162.952 262.54 162.722 262.382 162.563 262.404C160.816 262.591 159.124 263.023 157.484 263.659C154.926 264.647 152.811 266.305 150.86 268.183C148.778 270.171 146.886 272.337 145.221 274.682C143.538 277.045 141.935 279.46 140.318 281.863C140.22 281.997 140.148 282.27 140.219 282.379C140.64 282.984 141.107 283.559 141.592 284.189C143.003 283.112 144.35 282.081 145.709 281.047C147.53 279.655 149.351 278.267 151.176 276.881C151.831 276.391 152.577 276.385 153.145 276.846C153.957 277.504 153.919 278.644 153.042 279.306C150.007 281.63 146.959 283.942 143.926 286.262C143.78 286.373 143.633 286.481 143.499 286.589C143.536 286.683 143.545 286.73 143.571 286.76C143.963 287.278 144.38 287.784 144.75 288.309C144.922 288.546 145.08 288.56 145.34 288.485C150.656 286.895 155.855 285.015 160.706 282.287C162.494 281.282 164.194 280.149 165.692 278.739C167.632 276.9 168.994 274.68 170.031 272.241C170.133 271.995 170.113 271.821 169.952 271.617ZM164.628 275.113C162.309 276.854 159.028 276.428 157.286 274.15C155.533 271.875 155.975 268.609 158.272 266.845C160.528 265.115 163.811 265.562 165.569 267.838C167.308 270.1 166.884 273.415 164.628 275.113Z" fill="white"/>
<path d="M171.081 269.041C169.325 266.754 167.61 264.523 165.895 262.285C165.9 262.232 165.912 262.176 165.919 262.119C167.919 262.359 169.923 262.602 171.95 262.844C171.911 265.012 171.586 267.003 171.081 269.041Z" fill="#DB2C2C"/>
<path d="M144.998 269.826C142.993 272.544 140.986 275.268 138.944 278.037C136.66 277.293 134.296 276.527 131.868 275.741C134.38 273.082 137.034 270.762 140.611 269.785C142.156 269.36 143.94 269.398 144.998 269.826Z" fill="#DB2C2C"/>
<path d="M155.072 294.389C153.379 296.033 151.41 297.261 149.276 298.377C149.146 295.77 149.016 293.218 148.888 290.716C152.111 289.468 155.263 288.251 158.435 287.021C158.557 287.893 158.404 288.812 158.126 289.712C157.546 291.554 156.44 293.053 155.072 294.389Z" fill="#DB2C2C"/>
<path d="M165.568 267.838C163.81 265.562 160.526 265.116 158.271 266.845C155.974 268.61 155.532 271.876 157.285 274.15C159.026 276.428 162.308 276.854 164.627 275.114C166.883 273.415 167.307 270.1 165.568 267.838ZM163.064 273.192C161.889 274.079 160.164 273.845 159.249 272.676C158.302 271.471 158.56 269.7 159.813 268.774C160.987 267.898 162.746 268.152 163.629 269.326C164.552 270.548 164.298 272.264 163.064 273.192Z" fill="#317F8B"/>
<path d="M163.062 273.192C161.887 274.079 160.161 273.845 159.244 272.674C158.301 271.471 158.557 269.7 159.81 268.774C160.985 267.9 162.742 268.151 163.625 269.324C164.548 270.547 164.298 272.265 163.062 273.192Z" fill="#22A7F0"/>
<path d="M240.741 238.121C240.741 238.121 229.604 232.857 219.145 237.579C209.129 242.101 202.043 274.296 215.019 282.451C223.028 287.485 228.48 283.038 233.011 284.344C239.732 286.28 253.521 253.131 240.741 238.121Z" fill="white"/>
<g opacity="0.35">
<path d="M245.767 259.073C244.447 272.567 237.294 285.578 233.013 284.344C228.48 283.04 223.029 287.487 215.02 282.454C208.821 278.555 207.202 269.176 208.295 259.94C209.032 265.329 211.121 269.946 215.02 272.396C223.029 277.424 228.362 275.088 233.013 274.287C238.764 273.295 243.451 267.04 245.767 259.073Z" fill="#317F8B"/>
</g>
<path d="M223.232 286.968C220.53 286.968 217.403 286.379 213.918 284.189C210.799 282.229 208.545 279.056 207.222 274.76C206.111 271.155 205.696 266.762 206.02 262.055C206.405 256.482 207.781 250.764 209.894 245.955C211.508 242.281 214.276 237.52 218.292 235.708C229.494 230.65 241.135 236.033 241.624 236.264L242.026 236.454L242.313 236.792C248.161 243.661 248.499 253.151 247.752 259.902C246.911 267.508 244.215 275.576 240.717 280.959C237.213 286.35 234.28 286.849 232.436 286.318C231.24 285.974 229.728 286.214 227.978 286.493C226.594 286.715 225.004 286.968 223.232 286.968ZM228.678 237.661C225.543 237.661 222.637 238.259 219.997 239.452C217.826 240.432 215.52 243.403 213.675 247.604C211.775 251.927 210.486 257.297 210.138 262.339C209.523 271.241 211.703 277.939 216.12 280.715C220.573 283.514 224.008 282.966 227.328 282.436C229.474 282.094 231.502 281.771 233.585 282.371C233.824 282.413 235.541 281.753 237.962 277.575C243.608 267.834 247.189 249.438 239.464 239.807C238.589 239.445 236.336 238.592 233.388 238.082C231.767 237.802 230.196 237.661 228.678 237.661Z" fill="#317F8B"/>
</svg>
