<svg width="16" height="18" viewBox="0 0 16 18" fill="none" xmlns="http://www.w3.org/2000/svg">
<g id="Delete">
<path id="Delete_2" fill-rule="evenodd" clip-rule="evenodd" d="M14.9059 3.36922C15.2301 3.36922 15.5 3.63838 15.5 3.98088V4.29754C15.5 4.63171 15.2301 4.90921 14.9059 4.90921H1.09488C0.769883 4.90921 0.5 4.63171 0.5 4.29754V3.98088C0.5 3.63838 0.769883 3.36922 1.09488 3.36922H3.52464C4.01821 3.36922 4.44775 3.01839 4.55879 2.5234L4.68603 1.95507C4.88378 1.18091 5.53458 0.666748 6.27939 0.666748H9.72061C10.4573 0.666748 11.1154 1.18091 11.3059 1.91424L11.442 2.52256C11.5522 3.01839 11.9818 3.36922 12.4762 3.36922H14.9059ZM13.6715 14.9452C13.9252 12.581 14.3694 6.9644 14.3694 6.90773C14.3856 6.73607 14.3296 6.57357 14.2186 6.44274C14.0995 6.32024 13.9487 6.24774 13.7826 6.24774H2.22379C2.05684 6.24774 1.89799 6.32024 1.78776 6.44274C1.67592 6.57357 1.62081 6.73607 1.62891 6.90773C1.6304 6.91815 1.64634 7.11599 1.67298 7.44675C1.79134 8.91611 2.121 13.0086 2.33401 14.9452C2.48476 16.3718 3.42084 17.2685 4.77674 17.301C5.82305 17.3251 6.90096 17.3335 8.00318 17.3335C9.04138 17.3335 10.0958 17.3251 11.1745 17.301C12.5774 17.2768 13.5127 16.396 13.6715 14.9452Z" fill="#CF3636"/>
</g>
</svg>
